<svg data-v-423bf9ae="" xmlns="http://www.w3.org/2000/svg" viewBox="0 0 1154.118095375432 1392" class="iconAbove">
    <defs data-v-423bf9ae="">
        <linearGradient data-v-423bf9ae="" gradientTransform="rotate(25)" id="zkSvgBodyGradient" x1="0%" y1="0%" x2="100%" y2="0%">
            <stop data-v-423bf9ae="" offset="0%" style="stop-color:rgb(4, 7, 7); stop-opacity: 1;">

            </stop>
            <stop data-v-423bf9ae="" offset="100%" style="stop-color:rgb(4, 7, 7); stop-opacity: 1;">

            </stop>
        </linearGradient>
    </defs>
    <g data-v-423bf9ae="" id="b3545fab-4563-4a67-ad97-663106258b18" transform="matrix(3.8276665581597222,0,0,3.8276665581597222,1.0823334828536417,0.6470390443906808)" stroke="none" fill="url(#zkSvgBodyGradient)">
        <path d="M283.27 162.48l-28.95 2.31-12.85 6.71-48.76 12.19-9 5-18.24-24 9.34-94.5L199.75.02l-72.56 32.77-19.3-4.54-42.26 57.83-21.36 1.18 5.06 61.8-10.68 11.28 64.81 47.09-8.62 9.19 17.63 7.48-76 48.5-36.52 58h11.63l-5.22 13.91 16.75-17.94-.71 14.95 97.68-82.92h84l35.45-18.57 29.26-31.47 1.94-1.32 11.12-7.25 7.42-14.11 12.2-15.25zm-28.1 5.21l27.56-2.16 11.08 5-16.43 2.53-29.8-1.4zm18.94 8.18L255 196.02l-10.53-21.53zm-32.52-.44l11.07 22.62-43.49 26.51 12.23-28.42zm-36.43 50.83l-.47.09-31.49-5.66 23.92-14.5 20.15-8.13zm-11.35-39.81l43.46-10.84-18 18.42-22.43 9-11.16-12.1zm-10.93 6.07l11.22 12-23.83 14.43-4.43-48.77zm-18.24-50.16l-2-59.47 8.75-9zm7.37-73.34l-11.68 11.95-38.76 11.34 71.49-82.52zm-52.54 27l40.22-11.75 2.58 75.65zm41.1 66.8l-65.45-14.43 22.25-50.12zM128.69 35.43l62.83-28.42-72.06 83.14zm-3.06.1l-8.36 49.54-7-53.15zm-18.12-1.66l7.83 59.52-46.25-6.94zm6.66 62.38l.24 1.27-21.39 48.19-24.16-56.26zm-48.72-7.13l21 48.94-37.59-48zm-17.63 4.42l43.28 55.31-38.83-.72zm-4.62 66.38l7.71-8.14 42.36 44.54zm11.27-8.75l37.53.72 11.12 50.38zm40.61.78h2.29l65.17 14.39 4.84 53.21-60.34-13.6zm67.52 69.61l-32.16 8.23-20-20zm-62.61-6l5.75-6.14 24.24 23.59 14.34 3.36-28.35 9.91 1.19-21.58zm-61.62 61.35l.61-1.39-.25-.11.19-.79 75.13-48-1.14 20.73-58.74 21.93-24.23 42.14zm71-25l-44.8 44.19-7.55-24.69zm-104 75.66l24.5-38.78-17.05 38.78H5.44zm9.09 3.82l.66-1.75 16.24-36.93-6.81 27.87zm12.91-9.6l27.33-47.54 7.41 24.24-36 35.47zm91.67-66.22h-.08l-65 55.22 61.19-60.36 23.94-8.95zm5.21 0l25.38-17.86 45.43 17.86h-70.8zm77.07-.76l-52-20.35-13.05-3.08 32.79-8.37 32.93 5.92 1.39.25.95.17zm3 .24l2.95-24.93 27.55 9zm33.84-18l-29.4-9.59L263 210.35zm-15.92-17l32.27-19.67 9.94 6.35zm45.72-14.64l-8.2-5.24 16 .17zm18.78-21.31l-6.87 13.29-21.81-.23 20.13-21.23 17.29-2.66z">

        </path>
    </g>
    <!---->
</svg>